<svg width="25" height="24" viewBox="0 0 25 24" fill="none" xmlns="http://www.w3.org/2000/svg">
<path d="M12.5 12.5263C14.1569 12.5263 15.5 11.1125 15.5 9.36846C15.5 7.62441 14.1569 6.21058 12.5 6.21058C10.8431 6.21058 9.5 7.62441 9.5 9.36846C9.5 11.1125 10.8431 12.5263 12.5 12.5263Z" fill="#6B7280"/>
<path d="M11.5 15.6842H13.5C14.5609 15.6842 15.5783 16.1278 16.3284 16.9175C17.0786 17.7071 17.5 18.778 17.5 19.8947V22H7.5V19.8947C7.5 18.778 7.92143 17.7071 8.67157 16.9175C9.42172 16.1278 10.4391 15.6842 11.5 15.6842Z" fill="#6B7280"/>
<path d="M15.5 9.36846C15.4993 8.62425 15.2483 7.90431 14.7917 7.33616C14.335 6.76801 13.7021 6.38829 13.005 6.26426" fill="#6B7280"/>
<path d="M17 2.00006C16.2815 2.00238 15.577 2.20901 14.9609 2.59812C14.3448 2.98723 13.84 3.54436 13.5 4.21058C14.6287 4.45471 15.6428 5.10106 16.3715 6.04065C17.1002 6.98023 17.4987 8.15557 17.5 9.36846C17.4983 9.70795 17.4648 10.0464 17.4 10.379C18.4225 10.2766 19.368 9.76293 20.0398 8.94503C20.7115 8.12713 21.0576 7.068 21.0061 5.9882C20.9545 4.90839 20.5093 3.89113 19.763 3.14823C19.0168 2.40534 18.0271 1.99407 17 2.00006Z" fill="#6B7280"/>
<path d="M9.866 13.8232C9.01249 13.2605 8.33802 12.4424 7.929 11.4737H7.5C6.1744 11.4754 4.90356 12.0304 3.96622 13.0171C3.02888 14.0038 2.50159 15.3415 2.5 16.7369V18.8421C2.5 19.1213 2.60536 19.389 2.79289 19.5864C2.98043 19.7838 3.23478 19.8947 3.5 19.8947H5.5C5.50228 18.5208 5.92963 17.1851 6.71738 16.0896C7.50513 14.9941 8.61042 14.1985 9.866 13.8232Z" fill="#6B7280"/>
<path d="M17.5 11.4737H17.071C16.662 12.4424 15.9875 13.2605 15.134 13.8232C16.3896 14.1985 17.4949 14.9941 18.2826 16.0896C19.0704 17.1851 19.4977 18.5208 19.5 19.8947H21.5C21.7652 19.8947 22.0196 19.7838 22.2071 19.5864C22.3946 19.389 22.5 19.1213 22.5 18.8421V16.7369C22.4984 15.3415 21.9711 14.0038 21.0338 13.0171C20.0964 12.0304 18.8256 11.4754 17.5 11.4737Z" fill="#6B7280"/>
<path d="M7.5 9.36847C7.50127 8.15557 7.89984 6.98024 8.62849 6.04065C9.35715 5.10107 10.3713 4.45472 11.5 4.21059C11.1735 3.57248 10.6956 3.03421 10.1129 2.64819C9.53015 2.26217 8.86238 2.04154 8.17459 2.00779C7.48681 1.97403 6.80243 2.12829 6.18809 2.45555C5.57374 2.78282 5.05036 3.27194 4.66888 3.8753C4.2874 4.47866 4.06083 5.17571 4.01121 5.8986C3.96159 6.62148 4.09062 7.34558 4.38574 8.0004C4.68086 8.65522 5.13201 9.21845 5.69528 9.63528C6.25855 10.0521 6.91475 10.3083 7.6 10.379C7.53516 10.0464 7.50166 9.70795 7.5 9.36847Z" fill="#6B7280"/>
</svg>
