<svg width="25" height="24" viewBox="0 0 25 24" fill="none" xmlns="http://www.w3.org/2000/svg">
<path d="M18.3663 13.0862V11.1914C18.3671 9.91087 17.8988 8.6675 17.0373 7.66237C16.1758 6.65725 14.9714 5.94915 13.6189 5.65258C13.6292 5.61584 13.6372 5.57859 13.6429 5.541V3.05262C13.6429 2.77345 13.5224 2.50571 13.3081 2.3083C13.0938 2.1109 12.8031 2 12.5 2C12.1969 2 11.9062 2.1109 11.6919 2.3083C11.4776 2.50571 11.3571 2.77345 11.3571 3.05262V5.541C11.3628 5.57859 11.3708 5.61584 11.3811 5.65258C10.0286 5.94915 8.82418 6.65725 7.96268 7.66237C7.10117 8.6675 6.63295 9.91087 6.63371 11.1914V13.0862C6.63371 15.5977 4.5 16.2251 4.5 17.4808C4.5 18.105 4.5 18.7366 5.11486 18.7366H19.8851C20.5 18.7366 20.5 18.105 20.5 17.4808C20.5 16.2251 18.3663 15.5977 18.3663 13.0862Z" fill="#6B7280"/>
<path d="M8.86914 19.7892C9.17232 20.445 9.67816 21.0043 10.3237 21.3973C10.9693 21.7904 11.7261 22 12.5 22C13.2739 22 14.0307 21.7904 14.6763 21.3973C15.3218 21.0043 15.8277 20.445 16.1309 19.7892H8.86914Z" fill="#6B7280"/>
</svg>
