<svg width="21" height="20" viewBox="0 0 21 20" fill="none" xmlns="http://www.w3.org/2000/svg">
<path d="M10.5147 13.3333C10.2053 13.3332 9.90857 13.2164 9.68983 13.0084L5.02316 8.57304C4.91173 8.47075 4.82285 8.3484 4.76171 8.21312C4.70057 8.07783 4.66838 7.93233 4.66704 7.7851C4.66569 7.63787 4.69521 7.49186 4.75387 7.35559C4.81253 7.21931 4.89916 7.09551 5.0087 6.9914C5.11824 6.88729 5.2485 6.80495 5.39188 6.7492C5.53526 6.69344 5.68889 6.66539 5.8438 6.66667C5.99871 6.66795 6.1518 6.69854 6.29413 6.75665C6.43647 6.81476 6.56521 6.89924 6.67283 7.00514L10.5147 10.6566L14.3565 7.00514C14.5765 6.80316 14.8712 6.69139 15.1771 6.69392C15.483 6.69645 15.7756 6.81306 15.9919 7.01865C16.2083 7.22424 16.331 7.50235 16.3336 7.79308C16.3363 8.08382 16.2187 8.36391 16.0062 8.57304L11.3395 13.0084C11.1208 13.2164 10.8241 13.3332 10.5147 13.3333Z" fill="#111928"/>
</svg>
