<svg width="25" height="24" viewBox="0 0 25 24" fill="none" xmlns="http://www.w3.org/2000/svg">
<path d="M9.643 3H5.357C4.33141 3 3.5 3.83141 3.5 4.857V9.143C3.5 10.1686 4.33141 11 5.357 11H9.643C10.6686 11 11.5 10.1686 11.5 9.143V4.857C11.5 3.83141 10.6686 3 9.643 3Z" fill="#6B7280"/>
<path d="M19.643 3H15.357C14.3314 3 13.5 3.83141 13.5 4.857V9.143C13.5 10.1686 14.3314 11 15.357 11H19.643C20.6686 11 21.5 10.1686 21.5 9.143V4.857C21.5 3.83141 20.6686 3 19.643 3Z" fill="#6B7280"/>
<path d="M9.643 13H5.357C4.33141 13 3.5 13.8314 3.5 14.857V19.143C3.5 20.1686 4.33141 21 5.357 21H9.643C10.6686 21 11.5 20.1686 11.5 19.143V14.857C11.5 13.8314 10.6686 13 9.643 13Z" fill="#6B7280"/>
<path d="M20.5 16H18.5V14C18.5 13.7348 18.3946 13.4804 18.2071 13.2929C18.0196 13.1054 17.7652 13 17.5 13C17.2348 13 16.9804 13.1054 16.7929 13.2929C16.6054 13.4804 16.5 13.7348 16.5 14V16H14.5C14.2348 16 13.9804 16.1054 13.7929 16.2929C13.6054 16.4804 13.5 16.7348 13.5 17C13.5 17.2652 13.6054 17.5196 13.7929 17.7071C13.9804 17.8946 14.2348 18 14.5 18H16.5V20C16.5 20.2652 16.6054 20.5196 16.7929 20.7071C16.9804 20.8946 17.2348 21 17.5 21C17.7652 21 18.0196 20.8946 18.2071 20.7071C18.3946 20.5196 18.5 20.2652 18.5 20V18H20.5C20.7652 18 21.0196 17.8946 21.2071 17.7071C21.3946 17.5196 21.5 17.2652 21.5 17C21.5 16.7348 21.3946 16.4804 21.2071 16.2929C21.0196 16.1054 20.7652 16 20.5 16Z" fill="#6B7280"/>
</svg>
