<svg width="24" height="25" viewBox="0 0 24 25" fill="none" xmlns="http://www.w3.org/2000/svg">
<g id="code-merge">
<path id="Vector" d="M16 10.5C14.691 10.5 13.587 11.348 13.178 12.52L12.004 12.514C10.348 12.508 9 11.156 9 9.5V8.316C10.161 7.902 11 6.802 11 5.5C11 3.846 9.654 2.5 8 2.5C6.346 2.5 5 3.846 5 5.5C5 6.802 5.839 7.902 7 8.316V16.685C5.839 17.098 5 18.198 5 19.5C5 21.154 6.346 22.5 8 22.5C9.654 22.5 11 21.154 11 19.5C11 18.198 10.161 17.098 9 16.684V13.48C9.837 14.116 10.867 14.51 11.995 14.514L13.19 14.52C13.61 15.671 14.705 16.5 16 16.5C17.654 16.5 19 15.154 19 13.5C19 11.846 17.654 10.5 16 10.5Z" fill="#1F2A37"/>
</g>
</svg>
