<svg width="24" height="24" viewBox="0 0 24 24" fill="none" xmlns="http://www.w3.org/2000/svg">
<g id="youtube">
<path id="Vector" fill-rule="evenodd" clip-rule="evenodd" d="M21.796 8.01679C21.7015 7.30291 21.4274 6.62429 20.9991 6.04377C20.4683 5.51199 19.7486 5.20923 18.9953 5.20092C16.2006 5 12 5 12 5C12 5 7.80143 5 5.00273 5.20092C4.24968 5.20906 3.53015 5.51186 2.9999 6.04377C2.56975 6.62373 2.29516 7.30308 2.202 8.0178C2.07717 9.08704 2.00974 10.1621 2 11.2385V12.7454C2.00968 13.8218 2.07711 14.8969 2.202 15.9661C2.29694 16.6815 2.56903 17.3622 2.99384 17.9472C3.60357 18.4855 4.38752 18.7878 5.20271 18.7991C6.80154 18.9508 12.001 19 12.001 19C12.001 19 16.2036 19 18.9983 18.7991C19.752 18.7903 20.472 18.4873 21.0031 17.9552C21.4304 17.374 21.7038 16.6951 21.798 15.9812C21.9228 14.912 21.9903 13.8369 22 12.7605V11.2375C21.9886 10.1611 21.9205 9.08608 21.796 8.01679ZM9.98707 14.6009V8.95508L15.4411 11.787L9.98707 14.6009Z" fill="#1F2A37"/>
</g>
</svg>
