<svg width="24" height="24" viewBox="0 0 24 24" fill="none" xmlns="http://www.w3.org/2000/svg">
<path d="M19.8247 17.2123C18.7145 17.1858 17.6202 16.932 16.6044 16.4652C15.5886 15.9985 14.6713 15.328 13.9049 14.4922C13.1385 13.6564 12.5381 12.6716 12.138 11.5942C11.738 10.5167 11.5461 9.36787 11.5734 8.21326C11.6048 7.06909 11.8534 5.94267 12.3051 4.89888C12.7568 3.85509 13.4026 2.91455 14.2053 2.13143C13.7928 2.0624 13.3766 2.02066 12.959 2.00644C11.6915 1.9591 10.4275 2.17309 9.23981 2.63606C8.05213 3.09904 6.96428 3.80186 6.03892 4.70402C5.11357 5.60619 4.369 6.68987 3.84812 7.89263C3.32724 9.09539 3.04034 10.3935 3.00396 11.7121C2.96757 13.0306 3.18241 14.3437 3.63611 15.5755C4.08981 16.8074 4.77339 17.9337 5.64747 18.8896C6.52155 19.8455 7.56885 20.612 8.72904 21.1451C9.88923 21.6781 11.1394 21.9671 12.4074 21.9955C14.1232 22.0488 15.822 21.6287 17.3312 20.7781C18.8404 19.9274 20.1062 18.6765 21 17.1523C20.61 17.2006 20.2173 17.2207 19.8247 17.2123Z" fill="#6B7280"/>
</svg>
